<svg width="131" height="131" viewBox="0 0 131 131" fill="none" xmlns="http://www.w3.org/2000/svg">
<path d="M131 65.5C131 101.675 101.675 131 65.5 131C29.3253 131 0 101.675 0 65.5C0 29.3253 29.3253 0 65.5 0C101.675 0 131 29.3253 131 65.5Z" fill="url(#paint0_linear_7786_226)"/>
<path d="M116.282 54.9431C115.877 52.8998 117.037 51.2907 119.08 50.8857C121.209 50.4637 122.846 51.5088 123.252 53.5616C123.656 55.5954 122.576 57.2085 120.418 57.6362C118.375 58.0411 116.687 56.9864 116.282 54.9431ZM117.401 54.7312C117.64 55.9343 118.66 56.4267 120.121 56.1371C121.582 55.8476 122.378 55.0052 122.135 53.7831C121.893 52.5609 120.867 52.0895 119.377 52.3848C117.926 52.6724 117.163 53.5282 117.401 54.7312Z" fill="white"/>
<path d="M121.707 63.8521L124.223 63.6969C124.301 63.6933 124.332 63.7309 124.335 63.799L124.396 65.1116C124.399 65.1797 124.372 65.2199 124.294 65.2235L120.995 65.3174L117.701 65.5279C117.624 65.5315 117.593 65.4939 117.59 65.4259L117.529 64.1132C117.526 64.0451 117.553 64.0049 117.631 64.0013L120.609 63.9126L120.471 60.9275L117.498 61.1134C117.42 61.117 117.389 61.0795 117.386 61.0114L117.325 59.6988C117.322 59.6307 117.349 59.5905 117.427 59.5869L120.726 59.493L124.02 59.2825C124.097 59.2789 124.128 59.3165 124.132 59.3845L124.192 60.6972C124.195 60.7653 124.168 60.8055 124.09 60.8091L121.57 60.8865L121.707 63.8521Z" fill="white"/>
<path d="M120.274 73.3678L117.16 73.11C117.082 73.1021 117.057 73.0604 117.064 72.9927L117.196 71.695C117.203 71.6272 117.236 71.5914 117.313 71.5993L120.417 71.9636L122.889 72.1855L123.086 70.2487C121.871 70.0763 120.744 69.903 119.87 69.736C118.238 69.4332 117.39 69.0144 117.538 67.5618C117.561 67.3294 117.598 67.1571 117.64 67.0341C117.665 66.978 117.717 66.9538 117.775 66.9598L118.646 67.0483C118.714 67.0552 118.749 67.0979 118.722 67.1734C118.705 67.2402 118.699 67.2983 118.693 67.3564C118.627 68.0052 119.036 68.2228 120.101 68.4289C121.109 68.6193 122.565 68.826 124.208 69.032C124.275 69.0389 124.31 69.0816 124.303 69.1494L123.845 73.6621C123.838 73.7299 123.805 73.7656 123.727 73.7578L120.274 73.3678Z" fill="white"/>
<path d="M122.504 80.2703C122.49 80.3269 122.452 80.3575 122.391 80.3622L115.442 80.9344C115.371 80.9367 115.322 80.8941 115.341 80.8186L115.659 79.5536C115.673 79.497 115.704 79.4545 115.774 79.4522L117.498 79.3434L118.122 76.8606L116.648 75.9782C116.586 75.9427 116.579 75.8908 116.593 75.8342L116.909 74.5786C116.928 74.5031 116.994 74.4796 117.053 74.5245L122.891 78.3703C122.943 78.4034 122.962 78.4483 122.948 78.505L122.504 80.2703ZM118.73 79.2717L121.781 79.0748L119.174 77.5064L118.73 79.2717Z" fill="white"/>
<path d="M120.678 87.4527C120.243 88.526 120.544 89.415 121.482 89.7957L121.899 88.7674C121.437 88.5591 121.269 88.1968 121.438 87.7819C121.61 87.3579 121.988 87.2279 122.448 87.4145L122.865 86.3863C121.927 86.0057 121.099 86.4155 120.678 87.4527ZM116.362 83.9047L119.656 88.4978C119.69 88.5432 119.689 88.5956 119.667 88.6497L119.17 89.8763C119.144 89.9395 119.102 89.9646 119.03 89.9353L115.991 88.6495L112.915 87.4538C112.843 87.4246 112.83 87.3775 112.856 87.3144L113.339 86.1238C113.365 86.0607 113.407 86.0356 113.479 86.0648L115.862 87.0528L117.86 87.9267L117.878 87.934L114.552 83.3173C114.517 83.2719 114.518 83.2195 114.54 83.1654L115.037 81.9388C115.063 81.8756 115.105 81.8505 115.177 81.8798L118.216 83.1656L121.292 84.3613C121.364 84.3906 121.377 84.4376 121.351 84.5007L120.868 85.6913C120.842 85.7544 120.801 85.7795 120.728 85.7503L118.315 84.7604L116.38 83.912L116.362 83.9047Z" fill="white"/>
<path d="M113.523 94.8749L115.717 96.1179C115.784 96.1573 115.79 96.2057 115.755 96.2645L115.09 97.3976C115.055 97.4563 115.01 97.4751 114.943 97.4357L112.127 95.7144L109.252 94.0939C109.185 94.0544 109.18 94.0061 109.214 93.9473L109.88 92.8142C109.914 92.7554 109.959 92.7367 110.026 92.7761L112.57 94.3263L114.083 91.7495L111.49 90.2832C111.423 90.2438 111.418 90.1954 111.452 90.1367L112.117 89.0035C112.152 88.9448 112.197 88.926 112.264 88.9654L115.08 90.6867L117.955 92.3072C118.022 92.3467 118.027 92.395 117.993 92.4538L117.327 93.5869C117.293 93.6457 117.248 93.6645 117.181 93.625L115.027 92.3149L113.523 94.8749Z" fill="white"/>
<path d="M109.456 99.2769C109.415 99.3315 109.36 99.3395 109.306 99.2988L108.666 98.8221C108.611 98.7814 108.603 98.7269 108.644 98.6723L110.056 96.7752C110.097 96.7206 110.152 96.7126 110.206 96.7533L110.846 97.23C110.901 97.2707 110.909 97.3252 110.868 97.3799L109.456 99.2769Z" fill="white"/>
<path d="M106.563 102.368L106.93 101.965C106.976 101.915 107.031 101.912 107.082 101.958L107.679 102.502C107.729 102.548 107.732 102.603 107.686 102.654L107.325 103.049C106.735 103.697 106.78 104.212 107.183 104.579C107.622 104.979 108.135 104.893 108.567 104.418C109.007 103.936 109.09 103.353 108.646 102.843C108.602 102.79 108.599 102.735 108.645 102.685L109.543 101.699C109.589 101.649 109.651 101.639 109.695 101.706C110.609 102.828 110.328 104.046 109.292 105.183C108.335 106.234 107.158 106.557 106.302 105.777C105.683 105.214 105.626 104.582 105.965 103.878C105.198 104.416 104.45 104.327 103.824 103.757C102.802 102.826 103.109 101.42 104.17 100.254C105.219 99.1029 106.513 98.7808 107.747 99.812C107.797 99.8579 107.799 99.9129 107.754 99.9633L106.849 100.956C106.803 101.007 106.755 101.002 106.698 100.963C106.056 100.497 105.498 100.358 104.875 101.041C104.384 101.581 104.307 102.156 104.84 102.642C105.437 103.186 105.967 103.023 106.563 102.368Z" fill="white"/>
<path d="M103.02 111.005C102.976 111.043 102.927 111.046 102.875 111.014L96.9073 107.408C96.8485 107.368 96.8333 107.305 96.8929 107.255L97.8914 106.416C97.9361 106.378 97.9859 106.362 98.0447 106.401L99.5054 107.322L101.465 105.675L100.787 104.097C100.758 104.032 100.783 103.986 100.827 103.948L101.818 103.115C101.878 103.065 101.945 103.085 101.967 103.156L104.447 109.692C104.47 109.749 104.459 109.797 104.414 109.834L103.02 111.005ZM100.546 107.986L103.134 109.613L101.94 106.815L100.546 107.986Z" fill="white"/>
<path d="M99.5881 113.635C99.6295 113.701 99.612 113.746 99.5543 113.782L94.8044 116.761C94.7467 116.797 94.6982 116.793 94.6568 116.727L92.9532 113.901L91.1506 111.136C91.1093 111.07 91.1267 111.025 91.1845 110.989L92.2895 110.296C92.3472 110.259 92.3957 110.263 92.4371 110.329L94.1407 113.156L95.391 115.095L97.799 113.585L96.5981 111.615L94.7955 108.85C94.7542 108.785 94.7717 108.739 94.8294 108.703L95.9344 108.01C95.9921 107.974 96.0406 107.978 96.082 108.044L97.7856 110.87L99.5881 113.635Z" fill="white"/>
<path d="M89.3794 114.154L88.5682 119.747C88.5614 119.804 88.5248 119.841 88.4715 119.865L87.2623 120.404C87.2 120.432 87.1526 120.421 87.1209 120.35L85.8224 117.316L84.4351 114.321C84.4034 114.25 84.4271 114.208 84.4893 114.18L85.6629 113.657C85.7252 113.629 85.7726 113.64 85.8043 113.711L86.8363 116.075L87.6703 118.091L87.6782 118.109L88.4825 112.476C88.4894 112.419 88.5259 112.382 88.5792 112.358L89.7884 111.819C89.8507 111.791 89.8981 111.802 89.9298 111.873L91.2283 114.907L92.6156 117.902C92.6473 117.973 92.6237 118.015 92.5614 118.043L91.3878 118.566C91.3255 118.594 91.2781 118.583 91.2464 118.512L90.1936 116.125L89.3874 114.172L89.3794 114.154Z" fill="white"/>
<path d="M80.7807 122.743C78.7632 123.3 77.1298 122.245 76.5788 120.247C76.0021 118.154 76.9032 116.442 78.8832 115.896C80.2908 115.508 81.5934 115.765 82.4472 117.397C82.4841 117.458 82.4595 117.515 82.3938 117.533L81.2021 117.862C81.1458 117.877 81.0911 117.862 81.0636 117.799C80.6587 117.062 80.021 116.764 79.1671 116.999C78.0222 117.314 77.646 118.367 78.0495 119.831C78.453 121.295 79.3239 121.964 80.4406 121.656C81.3602 121.402 81.7136 120.78 81.6462 119.839C81.6375 119.771 81.6767 119.73 81.733 119.714L82.9529 119.378C83.0185 119.36 83.069 119.397 83.0735 119.486C83.1844 121.354 82.3103 122.322 80.7807 122.743Z" fill="white"/>
<path d="M74.8315 123.825C74.764 123.834 74.7215 123.811 74.7111 123.733L74.4334 121.384L73.2951 121.538C71.4623 121.785 70.4971 121.11 70.3097 119.721C70.1261 118.361 70.9687 117.471 72.7243 117.234L75.2131 116.898C75.2806 116.889 75.3231 116.913 75.3335 116.99L75.7168 120.268L76.2159 123.53C76.2263 123.608 76.1917 123.642 76.1241 123.651L74.8315 123.825ZM74.3056 120.292L73.9807 118.175L72.8328 118.329C72.0611 118.434 71.6822 118.828 71.7785 119.542C71.8735 120.246 72.3378 120.557 73.1191 120.452L74.3056 120.292Z" fill="white"/>
<path d="M62.3013 124.777C62.2332 124.775 62.1864 124.724 62.2084 124.657L64.5298 116.484C64.5417 116.426 64.5918 116.389 64.6501 116.391L65.4964 116.422C65.5644 116.425 65.6113 116.475 65.5893 116.543L63.2679 124.716C63.256 124.774 63.2059 124.811 63.1475 124.809L62.3013 124.777Z" fill="white"/>
<path d="M57.1264 124.274C57.0588 124.266 57.0167 124.211 57.0447 124.146L60.0924 116.215C60.1095 116.158 60.1627 116.126 60.2207 116.133L61.0606 116.241C61.1282 116.249 61.1703 116.304 61.1423 116.369L58.0946 124.3C58.0775 124.357 58.0243 124.389 57.9664 124.382L57.1264 124.274Z" fill="white"/>
<path d="M50.0155 115.262C51.9977 115.902 52.8395 117.698 52.1993 119.68C51.5323 121.746 49.8232 122.667 47.8318 122.024C45.8588 121.387 44.9746 119.659 45.6506 117.565C46.2908 115.583 48.0333 114.622 50.0155 115.262ZM49.6562 116.343C48.4891 115.966 47.5625 116.618 47.1049 118.035C46.6472 119.452 46.9961 120.557 48.1818 120.94C49.3674 121.323 50.2784 120.656 50.7451 119.211C51.1998 117.803 50.8233 116.72 49.6562 116.343Z" fill="white"/>
<path d="M39.6083 115.661L38.5196 117.935C38.4849 118.005 38.4371 118.014 38.3761 117.984L37.1997 117.398C37.1387 117.368 37.1169 117.324 37.1516 117.254L38.6745 114.326L40.0929 111.346C40.1276 111.277 40.1754 111.268 40.2364 111.298L41.4128 111.884C41.4737 111.914 41.4956 111.958 41.4609 112.028L40.0898 114.672L42.7649 116.004L44.0488 113.316C44.0835 113.246 44.1314 113.238 44.1924 113.268L45.3687 113.854C45.4297 113.884 45.4516 113.927 45.4169 113.997L43.8939 116.925L42.4756 119.905C42.4409 119.975 42.393 119.983 42.332 119.953L41.1557 119.367C41.0947 119.337 41.0729 119.294 41.1076 119.224L42.266 116.984L39.6083 115.661Z" fill="white"/>
<path d="M32.0145 109.806L33.7496 107.207C33.7941 107.143 33.8427 107.141 33.8986 107.18L34.9697 107.924C35.0257 107.963 35.041 108.01 34.9965 108.074L33.1735 110.612L31.781 112.666L33.3796 113.777C34.1195 112.798 34.8173 111.896 35.3868 111.213C36.443 109.932 37.2203 109.394 38.4192 110.227C38.6111 110.36 38.7438 110.476 38.8311 110.572C38.8679 110.622 38.8641 110.678 38.8308 110.726L38.3309 111.446C38.292 111.502 38.2378 111.511 38.185 111.451C38.1346 111.404 38.0866 111.371 38.0386 111.337C37.5031 110.965 37.1148 111.217 36.4183 112.049C35.7631 112.838 34.8764 114.012 33.9001 115.348C33.8612 115.404 33.807 115.414 33.751 115.375L30.0263 112.786C29.9703 112.748 29.955 112.701 29.9994 112.637L32.0145 109.806Z" fill="white"/>
<path d="M24.9433 108.463C24.9006 108.424 24.892 108.376 24.9176 108.32L27.77 101.958C27.8022 101.895 27.8633 101.872 27.9203 101.925L28.8748 102.814C28.9175 102.854 28.9399 102.901 28.9077 102.964L28.1712 104.526L30.0445 106.271L31.5289 105.405C31.5896 105.369 31.6385 105.388 31.6812 105.428L32.6286 106.31C32.6856 106.363 32.6743 106.432 32.6065 106.462L26.4205 109.719C26.3664 109.749 26.3181 109.744 26.2753 109.704L24.9433 108.463ZM27.6392 105.64L26.3394 108.407L28.9712 106.881L27.6392 105.64Z" fill="white"/>
<path d="M19.5417 103.404C18.8131 102.503 17.8894 102.337 17.1025 102.973L17.8005 103.836C18.2062 103.533 18.6046 103.561 18.8863 103.909C19.174 104.265 19.1048 104.659 18.7189 104.971L19.4169 105.834C20.2038 105.197 20.2458 104.274 19.5417 103.404ZM24.7353 101.342L19.122 102.003C19.0658 102.011 19.02 101.985 18.9833 101.94L18.1506 100.911C18.1077 100.858 18.1059 100.809 18.1665 100.76L20.7622 98.7223L23.2968 96.6089C23.3573 96.5599 23.4045 96.5718 23.4474 96.6248L24.2556 97.6236C24.2985 97.6766 24.3002 97.7252 24.2397 97.7742L22.2222 99.3816L20.4905 100.708L20.4754 100.72L26.1252 100.042C26.1814 100.035 26.2271 100.06 26.2639 100.106L27.0966 101.135C27.1394 101.188 27.1412 101.236 27.0807 101.285L24.4849 103.323L21.9503 105.436C21.8898 105.485 21.8426 105.474 21.7997 105.421L20.9915 104.422C20.9487 104.369 20.9469 104.32 21.0074 104.271L23.0415 102.638L24.7202 101.355L24.7353 101.342Z" fill="white"/>
<path d="M16.5391 93.6016L14.3884 94.9174C14.3213 94.957 14.2764 94.9383 14.2417 94.8796L13.5733 93.7483C13.5387 93.6896 13.544 93.6412 13.6111 93.6016L16.4818 91.9735L19.2931 90.2449C19.3602 90.2053 19.4051 90.224 19.4398 90.2826L20.1081 91.414C20.1428 91.4727 20.1375 91.5211 20.0704 91.5607L17.4812 93.0337L19.0011 95.6066L21.5408 94.0497C21.6079 94.0101 21.6528 94.0288 21.6875 94.0874L22.3558 95.2188C22.3905 95.2775 22.3852 95.3259 22.3181 95.3655L19.4474 96.9935L16.6361 98.7222C16.569 98.7618 16.5241 98.7431 16.4894 98.6844L15.821 97.5531C15.7864 97.4944 15.7917 97.446 15.8588 97.4064L18.0492 96.1577L16.5391 93.6016Z" fill="white"/>
<path d="M14.6617 87.9186C14.6337 87.8565 14.6533 87.805 14.7154 87.777L15.4432 87.4494C15.5053 87.4214 15.5568 87.441 15.5848 87.5031L16.5557 89.66C16.5837 89.7221 16.5641 89.7736 16.502 89.8015L15.7742 90.1292C15.7121 90.1571 15.6606 90.1376 15.6326 90.0755L14.6617 87.9186Z" fill="white"/>
<path d="M13.3348 83.8256L13.5078 84.3426C13.5295 84.4072 13.5049 84.4565 13.4403 84.4781L12.6742 84.7345C12.6095 84.7561 12.5603 84.7316 12.5386 84.6669L12.3687 84.1593C12.0907 83.3285 11.6195 83.1167 11.1026 83.2897C10.5395 83.4782 10.3647 83.9678 10.5686 84.577C10.7756 85.1955 11.2439 85.5519 11.9055 85.4126C11.9732 85.4002 12.0225 85.4248 12.0441 85.4894L12.4673 86.754C12.489 86.8186 12.4675 86.8771 12.3875 86.8833C10.9626 87.1344 10.0351 86.2952 9.54696 84.8368C9.0959 83.4892 9.38687 82.3038 10.4853 81.9361C11.2791 81.6704 11.8581 81.9283 12.3083 82.568C12.2117 81.6354 12.6542 81.0254 13.4573 80.7566C14.768 80.318 15.8465 81.2708 16.347 82.7662C16.8413 84.243 16.492 85.5301 14.9906 86.1045C14.9259 86.1261 14.8767 86.1015 14.855 86.0369L14.4287 84.7631C14.4071 84.6985 14.4347 84.6585 14.4963 84.6276C15.2161 84.2943 15.6096 83.8752 15.3161 82.9983C15.0844 82.306 14.6192 81.9588 13.9361 82.1874C13.17 82.4438 13.0537 82.9857 13.3348 83.8256Z" fill="white"/>
<path d="M7.48868 76.4678C7.47755 76.4105 7.49879 76.3667 7.55241 76.3365L13.6022 72.8711C13.6654 72.839 13.7283 72.8566 13.7431 72.933L13.9918 74.2134C14.0029 74.2708 13.9931 74.3222 13.9299 74.3543L12.4153 75.1839L12.9033 77.6969L14.6128 77.8707C14.6834 77.8768 14.7118 77.9208 14.7229 77.9782L14.9697 79.249C14.9845 79.3255 14.9346 79.3748 14.8622 79.3591L7.94394 78.3526C7.8829 78.3447 7.84681 78.312 7.83568 78.2547L7.48868 76.4678ZM11.3296 75.7715L8.65073 77.2437L11.6766 77.5584L11.3296 75.7715Z" fill="white"/>
<path d="M6.85303 72.2649C6.77527 72.2691 6.74402 72.2318 6.74036 72.1637L6.4391 66.5652C6.43544 66.4972 6.46251 66.4567 6.54026 66.4525L9.83838 66.3335L13.1302 66.0979C13.208 66.0938 13.2392 66.1311 13.2429 66.1991L13.313 67.5015C13.3166 67.5696 13.2896 67.61 13.2118 67.6142L9.91369 67.7332L7.61169 67.8863L7.76442 70.7244L10.0696 70.6296L13.3614 70.394C13.4391 70.3898 13.4704 70.4272 13.4741 70.4952L13.5441 71.7976C13.5478 71.8657 13.5207 71.9061 13.443 71.9103L10.1449 72.0293L6.85303 72.2649Z" fill="white"/>
<path d="M11.3257 63.0913L6.83702 59.6564C6.79117 59.623 6.77616 59.5728 6.78141 59.5146L6.9004 58.1962C6.90653 58.1283 6.93911 58.0922 7.01667 58.0992L10.2987 58.4442L13.5894 58.6924C13.667 58.6994 13.6926 58.7408 13.6864 58.8086L13.5709 60.0883C13.5648 60.1562 13.5322 60.1923 13.4547 60.1853L10.8874 59.934L8.72115 59.6799L8.70176 59.6781L13.2283 63.1262C13.2742 63.1596 13.2892 63.2099 13.284 63.268L13.165 64.5865C13.1588 64.6543 13.1263 64.6905 13.0487 64.6835L9.76669 64.3384L6.47594 64.0902C6.39838 64.0833 6.3728 64.0418 6.37892 63.974L6.49442 62.6943C6.50054 62.6265 6.53313 62.5903 6.61068 62.5973L9.20789 62.8415L11.3063 63.0895L11.3257 63.0913Z" fill="white"/>
<path d="M14.7736 53.8792C14.2785 55.9125 12.5631 56.8272 10.5487 56.3368C8.43965 55.8233 7.38148 54.2032 7.86735 52.2077C8.21275 50.789 9.07059 49.7757 10.9123 49.8234C10.9831 49.8206 11.0212 49.8699 11.0051 49.9361L10.7126 51.1372C10.6988 51.194 10.6589 51.2344 10.5904 51.2277C9.74996 51.2234 9.17881 51.6353 8.96927 52.496C8.68834 53.6498 9.42536 54.4904 10.9007 54.8496C12.3761 55.2089 13.3838 54.773 13.6579 53.6476C13.8835 52.7207 13.5115 52.1092 12.6568 51.7108C12.5929 51.6852 12.576 51.631 12.5898 51.5742L12.8892 50.3448C12.9053 50.2786 12.9618 50.2523 13.0423 50.2919C14.7282 51.1031 15.1489 52.3376 14.7736 53.8792Z" fill="white"/>
<path d="M9.92076 45.6725C9.94569 45.6091 9.98711 45.5836 10.0596 45.6121L12.2467 46.5136L12.6669 45.4447C13.3435 43.7235 14.4032 43.2092 15.7077 43.722C16.985 44.2241 17.3517 45.3932 16.7036 47.042L15.7849 49.3792C15.7599 49.4426 15.7185 49.4681 15.646 49.4396L12.5964 48.1781L9.50406 47.0253C9.43159 46.9968 9.41865 46.9499 9.44358 46.8864L9.92076 45.6725ZM13.2632 46.9341L15.2704 47.6813L15.6942 46.6033C15.9791 45.8786 15.8187 45.3554 15.1483 45.0919C14.487 44.8319 13.9897 45.0861 13.7012 45.8199L13.2632 46.9341Z" fill="white"/>
<path d="M15.1928 34.2222C15.2281 34.1639 15.295 34.1476 15.3431 34.1996L21.3539 40.2048C21.3988 40.2434 21.4068 40.3052 21.3765 40.3551L20.9372 41.079C20.9018 41.1373 20.8349 41.1536 20.7868 41.1016L14.776 35.0965C14.7311 35.0578 14.7231 34.996 14.7534 34.9461L15.1928 34.2222Z" fill="white"/>
<path d="M17.9164 30.2344C17.9565 30.1793 18.0244 30.1686 18.0681 30.2244L23.556 36.7109C23.5975 36.7531 23.6003 36.8154 23.566 36.8626L23.0676 37.5473C23.0275 37.6024 22.9595 37.6131 22.9159 37.5573L17.428 31.0708C17.3865 31.0285 17.3836 30.9663 17.418 30.919L17.9164 30.2344Z" fill="white"/>
<path d="M29.289 28.2328C27.7714 29.6596 25.7922 29.5297 24.3654 28.0121C22.8785 26.4307 22.8971 24.4894 24.4218 23.0559C25.9323 21.6357 27.8723 21.6955 29.3792 23.2982C30.806 24.8159 30.8066 26.8059 29.289 28.2328ZM28.516 27.3964C29.4096 26.5563 29.2859 25.43 28.2658 24.345C27.2457 23.26 26.1096 23.0322 25.2019 23.8856C24.2941 24.739 24.4387 25.859 25.4788 26.9653C26.4922 28.0432 27.6225 28.2365 28.516 27.3964Z" fill="white"/>
<path d="M33.8287 18.9866L32.362 16.9357C32.3177 16.8717 32.3331 16.8255 32.3891 16.7867L33.4696 16.039C33.5257 16.0002 33.5743 16.002 33.6186 16.0661L35.4484 18.8126L37.3742 21.4927C37.4185 21.5568 37.4031 21.6029 37.3471 21.6417L36.2665 22.3895C36.2105 22.4283 36.1619 22.4264 36.1176 22.3624L34.4626 19.8855L32.0054 21.586L33.7404 24.0075C33.7847 24.0716 33.7693 24.1177 33.7133 24.1565L32.6328 24.9043C32.5767 24.9431 32.5281 24.9412 32.4838 24.8772L30.654 22.1306L28.7282 19.4505C28.6839 19.3865 28.6993 19.3403 28.7553 19.3015L29.8358 18.5537C29.8919 18.515 29.9405 18.5168 29.9848 18.5809L31.3875 20.676L33.8287 18.9866Z" fill="white"/>
<path d="M42.6943 15.098L44.1266 17.8756C44.161 17.9454 44.139 17.9888 44.0779 18.0189L42.9076 18.5949C42.8465 18.625 42.7987 18.616 42.7643 18.5462L41.428 15.7214L40.3056 13.5073L38.559 14.3671C39.057 15.489 39.5076 16.5365 39.8289 17.3656C40.4374 18.9104 40.5317 19.8513 39.2218 20.4961C39.0122 20.5993 38.8464 20.6592 38.7199 20.6889C38.659 20.6972 38.6113 20.6664 38.5855 20.614L38.1986 19.8281C38.1685 19.7669 38.1862 19.7148 38.2647 19.6979C38.3301 19.6765 38.3825 19.6507 38.4349 19.6249C39.02 19.3369 38.9881 18.8753 38.5982 17.8629C38.2254 16.9073 37.6287 15.5628 36.9329 14.061C36.9028 13.9999 36.9205 13.9477 36.9816 13.9176L41.0512 11.9144C41.1124 11.8843 41.1602 11.8933 41.1946 11.9632L42.6943 15.098Z" fill="white"/>
<path d="M47.2936 9.53956C47.3491 9.52145 47.3951 9.53714 47.4318 9.58663L51.6157 15.1637C51.6554 15.2224 51.6457 15.287 51.5717 15.3111L50.3316 15.7156C50.2761 15.7337 50.2238 15.7303 50.1842 15.6715L49.1744 14.2706L46.7406 15.0643L46.7787 16.7822C46.7813 16.853 46.7411 16.8866 46.6855 16.9047L45.4548 17.3061C45.3807 17.3303 45.3256 17.2868 45.3322 17.213L45.4792 10.2235C45.4796 10.1619 45.5075 10.1221 45.5631 10.1039L47.2936 9.53956ZM48.4575 13.2655L46.6667 10.7883L46.727 13.8299L48.4575 13.2655Z" fill="white"/>
<path d="M54.888 7.13233C56.0299 6.93783 56.6274 6.21401 56.4574 5.21607L55.3635 5.40239C55.4293 5.90462 55.2097 6.23825 54.7683 6.31344C54.3173 6.39025 54.0075 6.13692 53.9242 5.64754L52.8303 5.83386C53.0003 6.8318 53.7845 7.32028 54.888 7.13233ZM54.1428 12.6702L56.3149 7.45209C56.3356 7.39921 56.3803 7.37185 56.4378 7.36204L57.7428 7.13977C57.81 7.12833 57.8533 7.15058 57.8664 7.22734L58.3724 10.4884L58.9745 13.7331C58.9875 13.8099 58.9541 13.8452 58.8869 13.8567L57.6203 14.0724C57.5531 14.0838 57.5098 14.0616 57.4968 13.9848L57.0828 11.4387L56.7743 9.27952L56.771 9.26033L54.5958 14.5184C54.5752 14.5713 54.5305 14.5987 54.4729 14.6085L53.1679 14.8307C53.1008 14.8422 53.0575 14.8199 53.0444 14.7432L52.5383 11.4821L51.9363 8.23739C51.9232 8.16062 51.9567 8.1253 52.0239 8.11386L53.2905 7.89812C53.3577 7.88668 53.401 7.90893 53.414 7.98569L53.8424 10.5589L54.1395 12.651L54.1428 12.6702Z" fill="white"/>
<path d="M64.8285 9.29927L64.7308 6.77982C64.729 6.70197 64.7673 6.67187 64.8354 6.67028L66.1491 6.63967C66.2172 6.63808 66.2568 6.66636 66.2586 6.74421L66.2771 10.0444L66.4124 13.3419C66.4142 13.4198 66.3759 13.4499 66.3078 13.4514L64.9941 13.4821C64.926 13.4836 64.8864 13.4554 64.8846 13.3775L64.8638 10.3987L61.8764 10.4683L61.9945 13.4449C61.9963 13.5227 61.958 13.5528 61.8899 13.5544L60.5762 13.585C60.5081 13.5866 60.4685 13.5583 60.4667 13.4805L60.4482 10.1803L60.3129 6.88279C60.3111 6.80494 60.3493 6.77484 60.4174 6.77325L61.7311 6.74263C61.7993 6.74105 61.8389 6.76933 61.8407 6.84718L61.8605 9.36844L64.8285 9.29927Z" fill="white"/>
<path d="M70.6183 10.418C70.6862 10.4238 70.7216 10.466 70.7158 10.5339L70.647 11.3291C70.6411 11.3969 70.599 11.4324 70.5311 11.4265L68.1746 11.2227C68.1067 11.2169 68.0713 11.1747 68.0771 11.1068L68.1459 10.3116C68.1518 10.2438 68.1939 10.2083 68.2618 10.2142L70.6183 10.418Z" fill="white"/>
<path d="M74.9329 11.2625L74.3973 11.1611C74.3304 11.1485 74.2994 11.103 74.312 11.036L74.4622 10.2422C74.4749 10.1753 74.5204 10.1443 74.5874 10.1569L75.1134 10.2565C75.9741 10.4194 76.389 10.1115 76.4904 9.57594C76.6008 8.99253 76.2588 8.60091 75.6276 8.48145C74.9868 8.36019 74.4471 8.59487 74.2457 9.24031C74.2234 9.30545 74.1779 9.33646 74.111 9.3238L72.8007 9.07584C72.7338 9.06317 72.6932 9.01587 72.7268 8.94298C73.2033 7.57689 74.3885 7.17706 75.8996 7.46302C77.2959 7.72726 78.1884 8.5599 77.9731 9.69802C77.8174 10.5205 77.3097 10.9 76.5317 10.9806C77.3927 11.3515 77.709 12.0355 77.5516 12.8676C77.2946 14.2257 75.9365 14.7017 74.3871 14.4085C72.8568 14.119 71.9041 13.1858 72.1358 11.595C72.1484 11.5281 72.1939 11.4971 72.2609 11.5097L73.5807 11.7595C73.6477 11.7722 73.6691 11.8159 73.666 11.8846C73.6055 12.6756 73.7792 13.2236 74.6878 13.3955C75.4051 13.5313 75.9352 13.2948 76.0692 12.5871C76.2194 11.7932 75.8032 11.4272 74.9329 11.2625Z" fill="white"/>
<path d="M83.8792 9.64697C83.9347 9.66512 83.9627 9.70498 83.963 9.76654L84.049 16.738C84.0463 16.8088 84.0004 16.8553 83.9264 16.8311L82.6867 16.4257C82.6312 16.4075 82.591 16.3739 82.5936 16.3031L82.6053 14.5762L80.1721 13.7805L79.189 15.1898C79.1493 15.2485 79.097 15.2519 79.0415 15.2337L77.811 14.8313C77.737 14.8071 77.7182 14.7395 77.7671 14.6838L82.0109 9.1282C82.0476 9.07874 82.0936 9.06309 82.1492 9.08124L83.8792 9.64697ZM82.6198 13.3418L82.6362 10.2851L80.8897 12.776L82.6198 13.3418Z" fill="white"/>
<path d="M87.9911 11.176C88.0253 11.106 88.0731 11.0969 88.1343 11.1268L93.1713 13.589C93.2325 13.6189 93.2547 13.6623 93.2205 13.7322L91.7189 16.6711L90.3223 19.6613C90.2881 19.7312 90.2403 19.7404 90.1791 19.7104L89.0073 19.1376C88.946 19.1077 88.9239 19.0644 88.9581 18.9944L90.4597 16.0556L91.4465 13.9702L88.893 12.722L87.8537 14.7817L86.457 17.7719C86.4228 17.8418 86.375 17.851 86.3138 17.821L85.142 17.2482C85.0808 17.2183 85.0586 17.175 85.0928 17.105L86.5944 14.1662L87.9911 11.176Z" fill="white"/>
<path d="M93.8679 19.5629L99.0488 17.3036C99.1003 17.2798 99.1515 17.291 99.1999 17.3238L100.295 18.0673C100.351 18.1056 100.367 18.1516 100.324 18.2161L98.4299 20.9188L96.6168 23.6762C96.573 23.7406 96.5244 23.7429 96.468 23.7046L95.405 22.983C95.3486 22.9447 95.3328 22.8987 95.3766 22.8342L96.8415 20.711L98.1145 18.9399L98.1254 18.9238L92.9146 21.2099C92.8631 21.2337 92.8119 21.2225 92.7635 21.1897L91.6683 20.4462C91.6119 20.4079 91.5961 20.3619 91.6398 20.2974L93.5335 17.5947L95.3466 14.8373C95.3904 14.7729 95.439 14.7706 95.4953 14.8089L96.5584 15.5305C96.6148 15.5688 96.6306 15.6148 96.5868 15.6793L95.1136 17.8321L93.8788 19.5468L93.8679 19.5629Z" fill="white"/>
<path d="M100.201 26.9914C98.6589 25.5764 98.6858 23.6325 100.088 22.105C101.555 20.5058 103.485 20.361 104.998 21.7497C106.074 22.7369 106.547 23.9773 105.617 25.5673C105.585 25.6306 105.523 25.6402 105.473 25.5941L104.562 24.7582C104.519 24.7188 104.503 24.6643 104.542 24.6075C104.951 23.8735 104.866 23.1745 104.214 22.5756C103.339 21.7726 102.247 22.0124 101.22 23.1311C100.193 24.2499 100.089 25.3428 100.942 26.126C101.645 26.771 102.36 26.7403 103.122 26.1841C103.175 26.1405 103.23 26.1519 103.273 26.1914L104.206 27.0469C104.256 27.093 104.252 27.1552 104.178 27.2066C102.654 28.2916 101.37 28.0642 100.201 26.9914Z" fill="white"/>
<path d="M109.769 26.7466C109.813 26.7991 109.815 26.8477 109.755 26.8973L107.908 28.3756L108.641 29.2604C109.82 30.685 109.758 31.8613 108.678 32.7551C107.621 33.6303 106.42 33.3858 105.29 32.0212L103.689 30.0867C103.646 30.0342 103.643 29.9856 103.703 29.936L106.282 27.8768L108.787 25.7276C108.847 25.678 108.894 25.6894 108.938 25.7418L109.769 26.7466ZM107.049 29.062L105.424 30.4575L106.163 31.3498C106.659 31.9496 107.195 32.0623 107.75 31.603C108.297 31.1499 108.315 30.5916 107.812 29.9843L107.049 29.062Z" fill="white"/>
<path d="M117.094 36.6589C117.128 36.718 117.11 36.7845 117.041 36.8016L108.882 39.1724C108.826 39.1931 108.768 39.1703 108.739 39.1197L108.317 38.3857C108.283 38.3267 108.301 38.2602 108.37 38.2431L116.529 35.8723C116.584 35.8516 116.642 35.8743 116.671 35.925L117.094 36.6589Z" fill="white"/>
<path d="M119.529 41.5261C119.557 41.588 119.533 41.6525 119.463 41.6633L111.122 43.2781C111.065 43.2936 111.009 43.2657 110.984 43.2126L110.631 42.4431C110.602 42.3812 110.626 42.3166 110.696 42.3059L119.038 40.6911C119.095 40.6755 119.151 40.7035 119.175 40.7566L119.529 41.5261Z" fill="white"/>
<defs>
<linearGradient id="paint0_linear_7786_226" x1="8.92182" y1="65.5878" x2="131" y2="65.5878" gradientUnits="userSpaceOnUse">
<stop stop-color="#FF372A"/>
<stop offset="1" stop-color="#FF1514"/>
</linearGradient>
</defs>
</svg>
